<?xml version="1.0" standalone="no"?>
<!DOCTYPE svg PUBLIC "-//W3C//DTD SVG 20010904//EN"
 "http://www.w3.org/TR/2001/REC-SVG-20010904/DTD/svg10.dtd">
<svg version="1.0" xmlns="http://www.w3.org/2000/svg"
 width="60.000000pt" height="60.000000pt" viewBox="0 0 60.000000 60.000000"
 preserveAspectRatio="xMidYMid meet">

<g transform="translate(0.000000,60.000000) scale(0.100000,-0.100000)"
fill="#000000" stroke="none">
<path d="M276 509 c-17 -17 -18 -19 -3 -19 23 0 21 -33 -3 -55 -11 -10 -20
-28 -20 -41 0 -22 -1 -22 -27 -8 -33 16 -77 18 -104 4 -22 -12 -49 -61 -49
-89 0 -20 55 -91 70 -91 4 0 -7 15 -26 34 -36 36 -41 59 -23 100 27 58 122 54
180 -7 l31 -33 32 32 c43 43 103 61 142 43 16 -8 34 -25 41 -39 9 -17 13 -20
13 -8 0 9 -14 28 -31 42 -33 28 -85 34 -120 16 -15 -9 -19 -7 -19 5 0 9 -11
27 -25 41 -31 31 -32 51 -2 57 l22 4 -22 8 c-13 4 -23 11 -23 16 0 14 -13 10
-34 -12z"/>
<path d="M120 350 c-29 -29 -25 -57 14 -96 30 -30 37 -33 61 -24 14 5 42 10
61 10 29 0 34 3 34 23 0 34 -28 67 -74 88 -53 24 -71 24 -96 -1z"/>
<path d="M395 356 c-38 -16 -85 -70 -85 -97 0 -14 7 -19 29 -19 16 0 42 -5 56
-10 36 -14 89 18 104 61 9 27 7 33 -14 55 -27 27 -46 29 -90 10z"/>
<path d="M520 287 c0 -7 -18 -30 -40 -52 -38 -37 -40 -38 -78 -27 -81 25 -252
7 -252 -25 0 -10 6 -13 17 -8 69 26 209 24 262 -5 18 -9 21 -8 21 7 0 10 18
35 40 56 34 32 52 67 35 67 -3 0 -5 -6 -5 -13z"/>
<path d="M250 174 c-51 -9 -100 -28 -100 -39 0 -9 13 -9 52 1 68 18 133 18
194 -1 59 -18 54 -18 54 -2 0 23 -137 51 -200 41z"/>
<path d="M235 125 c-5 -2 -22 -6 -37 -9 -66 -15 0 -46 96 -46 65 0 136 15 136
29 0 20 -154 40 -195 26z"/>
</g>
</svg>
