<?xml version="1.0" standalone="no"?>
<!DOCTYPE svg PUBLIC "-//W3C//DTD SVG 20010904//EN"
 "http://www.w3.org/TR/2001/REC-SVG-20010904/DTD/svg10.dtd">
<svg version="1.0" xmlns="http://www.w3.org/2000/svg"
 width="60.000000pt" height="60.000000pt" viewBox="0 0 60.000000 60.000000"
 preserveAspectRatio="xMidYMid meet">

<g transform="translate(0.000000,60.000000) scale(0.100000,-0.100000)"
fill="#000000" stroke="none">
<path d="M276 527 c-16 -12 -17 -18 -6 -48 10 -28 10 -46 -2 -99 l-14 -64 -26
69 c-19 51 -23 74 -15 86 17 27 1 51 -30 47 -33 -4 -43 -37 -18 -58 11 -9 15
-31 15 -76 0 -35 -3 -64 -7 -64 -16 0 -67 94 -67 124 -1 26 -5 32 -28 34 -36
4 -50 -34 -20 -58 13 -11 25 -42 36 -96 9 -43 25 -91 36 -106 24 -33 25 -38 3
-77 -16 -27 -16 -32 -3 -44 21 -20 98 -37 164 -37 60 0 153 17 161 29 2 5 -21
2 -53 -5 -89 -21 -214 -14 -262 16 -27 17 -4 19 50 5 68 -18 138 -19 212 -1
32 7 60 11 62 8 3 -2 1 10 -4 29 -6 19 -10 35 -10 36 0 2 -65 3 -145 3 -95 0
-145 4 -145 11 0 7 48 9 145 7 174 -4 194 9 52 32 -52 8 -160 0 -201 -16 -9
-3 -16 -1 -16 5 0 32 210 45 288 18 52 -18 54 -16 73 91 8 50 18 77 32 87 26
19 19 59 -12 63 -27 4 -43 -14 -37 -43 3 -12 -9 -43 -29 -75 l-35 -55 0 68 c0
46 5 76 16 92 13 20 14 28 4 40 -28 34 -80 2 -59 -37 11 -21 -28 -145 -41
-131 -4 4 -12 34 -18 66 -9 45 -9 63 1 78 8 14 9 24 1 36 -14 23 -27 26 -48
10z m19 -388 c44 0 96 5 115 11 42 12 40 12 40 0 0 -15 -80 -32 -155 -32 -76
0 -159 18 -150 32 3 5 19 4 38 -1 17 -5 68 -10 112 -10z"/>
</g>
</svg>
