<?xml version="1.0" standalone="no"?>
<!DOCTYPE svg PUBLIC "-//W3C//DTD SVG 20010904//EN"
 "http://www.w3.org/TR/2001/REC-SVG-20010904/DTD/svg10.dtd">
<svg version="1.0" xmlns="http://www.w3.org/2000/svg"
 width="60.000000pt" height="60.000000pt" viewBox="0 0 60.000000 60.000000"
 preserveAspectRatio="xMidYMid meet">

<g transform="translate(0.000000,60.000000) scale(0.100000,-0.100000)"
fill="#000000" stroke="none">
<path d="M150 457 c0 -31 6 -49 20 -62 17 -15 20 -31 20 -95 0 -51 -5 -82 -15
-96 -8 -10 -15 -29 -15 -40 0 -13 -8 -24 -21 -27 -15 -4 -20 -12 -17 -29 l3
-23 188 -3 187 -2 0 30 c0 23 -4 30 -20 30 -14 0 -20 7 -20 23 0 12 -7 31 -15
41 -10 14 -15 45 -15 96 0 67 3 79 23 98 18 17 22 30 19 62 -4 37 -6 40 -33
40 -17 0 -32 -6 -35 -15 -4 -8 -15 -15 -25 -15 -11 0 -22 7 -25 15 -4 10 -20
15 -44 15 -24 0 -40 -5 -44 -15 -3 -8 -15 -15 -26 -15 -11 0 -20 7 -20 15 0
10 -11 15 -35 15 -35 0 -35 0 -35 -43z m54 8 c3 -9 19 -15 41 -15 22 0 38 6
41 15 4 8 14 15 24 15 10 0 20 -7 24 -15 3 -9 19 -15 41 -15 22 0 38 6 41 15
10 25 34 17 34 -10 l0 -25 -140 0 -140 0 0 25 c0 27 24 35 34 10z m221 -65
c-4 -6 -53 -10 -115 -10 -62 0 -111 4 -115 10 -4 6 37 10 115 10 78 0 119 -4
115 -10z m-15 -95 l0 -75 -100 0 -100 0 0 75 0 75 100 0 100 0 0 -75z m8 -102
c3 -10 -23 -13 -107 -13 -102 0 -123 5 -104 24 13 12 206 2 211 -11z m22 -48
c0 -13 -21 -15 -130 -15 -109 0 -130 2 -130 15 0 13 21 15 130 15 109 0 130
-2 130 -15z m40 -45 c0 -6 -63 -10 -170 -10 -107 0 -170 4 -170 10 0 6 63 10
170 10 107 0 170 -4 170 -10z"/>
</g>
</svg>
