<?xml version="1.0" standalone="no"?>
<!DOCTYPE svg PUBLIC "-//W3C//DTD SVG 20010904//EN"
 "http://www.w3.org/TR/2001/REC-SVG-20010904/DTD/svg10.dtd">
<svg version="1.0" xmlns="http://www.w3.org/2000/svg"
 width="60.000000pt" height="60.000000pt" viewBox="0 0 60.000000 60.000000"
 preserveAspectRatio="xMidYMid meet">

<g transform="translate(0.000000,60.000000) scale(0.100000,-0.100000)"
fill="#000000" stroke="none">
<path d="M184 505 c-4 -8 -4 -21 -1 -29 3 -7 -4 -26 -14 -42 -11 -16 -36 -60
-55 -98 -30 -58 -34 -74 -27 -100 7 -25 15 -32 49 -39 38 -7 43 -5 77 27 41
38 97 80 97 72 0 -19 -26 -65 -60 -105 -22 -26 -43 -61 -46 -79 l-6 -32 167 0
168 0 -7 92 c-13 172 -67 272 -164 300 -27 8 -47 20 -50 31 -5 21 -25 22 -42
2 -7 -8 -18 -15 -25 -15 -7 0 -18 7 -25 15 -7 8 -17 15 -22 15 -5 0 -11 -7
-14 -15z m134 -40 c118 -24 172 -106 188 -284 l7 -81 -147 0 c-80 0 -146 2
-146 5 0 16 32 63 59 90 31 29 43 60 56 143 7 45 -8 60 -19 18 -3 -13 -30 -43
-58 -67 -29 -23 -61 -52 -70 -63 -16 -19 -18 -19 -18 -3 0 9 -7 17 -15 17 -8
0 -15 -4 -15 -10 0 -18 -28 -11 -35 9 -7 24 7 60 61 153 27 45 43 83 38 90 -5
10 -4 11 7 1 19 -19 56 -16 64 5 8 16 8 16 12 0 3 -10 17 -20 31 -23z"/>
<path d="M204 422 c-19 -13 -25 -42 -8 -42 15 0 28 22 22 39 -1 6 -8 7 -14 3z"/>
<path d="M120 270 c0 -5 5 -10 10 -10 6 0 10 5 10 10 0 6 -4 10 -10 10 -5 0
-10 -4 -10 -10z"/>
</g>
</svg>
