<?xml version="1.0" standalone="no"?>
<!DOCTYPE svg PUBLIC "-//W3C//DTD SVG 20010904//EN"
 "http://www.w3.org/TR/2001/REC-SVG-20010904/DTD/svg10.dtd">
<svg version="1.0" xmlns="http://www.w3.org/2000/svg"
 width="60.000000pt" height="60.000000pt" viewBox="0 0 60.000000 60.000000"
 preserveAspectRatio="xMidYMid meet">

<g transform="translate(0.000000,60.000000) scale(0.100000,-0.100000)"
fill="#000000" stroke="none">
<path d="M283 523 c-16 -6 -17 -50 -2 -55 11 -4 -6 -125 -21 -141 -3 -4 -18
21 -32 56 -22 55 -23 66 -11 84 12 18 12 23 -2 37 -21 20 -29 20 -50 0 -14
-15 -14 -18 0 -40 10 -15 15 -47 15 -96 l0 -72 -34 54 c-22 35 -33 63 -30 76
7 26 -18 48 -46 39 -26 -8 -27 -51 -1 -60 14 -4 22 -21 30 -69 6 -34 11 -69
11 -77 0 -8 11 -31 25 -51 24 -36 25 -38 9 -72 -9 -19 -14 -41 -11 -49 8 -20
157 -33 256 -21 70 8 76 11 79 33 2 13 -2 35 -9 48 -11 20 -10 27 9 52 13 18
27 61 35 111 11 62 19 85 36 96 11 8 21 21 21 28 0 22 -27 38 -50 31 -16 -5
-21 -14 -18 -34 1 -18 -9 -45 -30 -77 l-32 -49 0 73 c0 41 4 72 10 72 6 0 10
11 10 24 0 32 -35 45 -58 22 -14 -14 -15 -20 -4 -37 12 -18 10 -29 -9 -78 -12
-31 -25 -60 -29 -64 -4 -4 -12 24 -19 64 -11 57 -11 76 -1 95 20 36 -8 63 -47
47z m29 -28 c0 -5 -5 -11 -11 -13 -6 -2 -11 4 -11 13 0 9 5 15 11 13 6 -2 11
-8 11 -13z m-112 -10 c0 -8 -4 -15 -10 -15 -5 0 -10 7 -10 15 0 8 5 15 10 15
6 0 10 -7 10 -15z m230 -10 c0 -8 -4 -15 -9 -15 -13 0 -22 16 -14 24 11 11 23
6 23 -9z m-338 -40 c0 -5 -5 -11 -11 -13 -6 -2 -11 4 -11 13 0 9 5 15 11 13 6
-2 11 -8 11 -13z m440 0 c0 -5 -5 -11 -11 -13 -6 -2 -11 4 -11 13 0 9 5 15 11
13 6 -2 11 -8 11 -13z m-203 -145 c1 -9 -9 -16 -25 -17 -26 -1 -26 0 -20 48
11 82 19 90 32 34 7 -27 13 -57 13 -65z m-79 -17 c0 -2 -11 -3 -25 -3 -24 0
-25 2 -25 63 l1 62 24 -59 c14 -33 25 -61 25 -63z m160 57 c0 -57 -1 -60 -25
-60 -14 0 -25 3 -25 7 0 10 43 113 47 113 2 0 3 -27 3 -60z m-246 -62 c-12
-18 -32 -6 -38 23 -11 58 -6 64 18 24 13 -22 22 -43 20 -47z m319 34 c-5 -39
-24 -55 -38 -33 -5 9 34 85 41 79 1 -2 0 -22 -3 -46z m-44 -58 c25 -5 29 -9
20 -20 -17 -21 -304 -20 -312 0 -4 10 2 16 16 19 36 7 242 8 276 1z m-9 -66
c0 -10 -32 -13 -125 -13 -93 0 -125 3 -125 13 0 9 32 12 125 12 93 0 125 -3
125 -12z m-25 -36 c31 -6 41 -12 43 -29 3 -19 -3 -22 -64 -28 -60 -7 -222 0
-232 10 -2 2 -1 13 3 24 4 13 17 21 38 24 55 7 170 6 212 -1z"/>
</g>
</svg>
