<?xml version="1.0" standalone="no"?>
<!DOCTYPE svg PUBLIC "-//W3C//DTD SVG 20010904//EN"
 "http://www.w3.org/TR/2001/REC-SVG-20010904/DTD/svg10.dtd">
<svg version="1.0" xmlns="http://www.w3.org/2000/svg"
 width="60.000000pt" height="60.000000pt" viewBox="0 0 60.000000 60.000000"
 preserveAspectRatio="xMidYMid meet">

<g transform="translate(0.000000,60.000000) scale(0.100000,-0.100000)"
fill="#000000" stroke="none">
<path d="M187 513 c-4 -3 -7 -20 -7 -36 0 -17 -6 -38 -14 -46 -28 -32 -86
-154 -86 -181 0 -31 8 -39 57 -56 30 -11 34 -9 73 27 22 21 54 48 70 59 l29
20 -9 -29 c-4 -16 -29 -54 -54 -85 -27 -33 -46 -67 -46 -81 l0 -25 140 0 140
0 0 73 c0 138 -45 248 -114 281 -43 20 -39 40 4 25 43 -16 97 -81 115 -141 9
-29 19 -95 22 -146 3 -51 9 -90 12 -87 8 9 1 154 -11 205 -23 97 -88 171 -166
186 -17 4 -32 12 -32 20 0 24 -21 26 -46 3 l-24 -23 -16 22 c-16 23 -26 27
-37 15z m23 -128 c-12 -15 -30 -12 -30 5 0 5 8 16 18 26 16 17 17 17 20 0 2
-9 -2 -23 -8 -31z m-70 -120 c0 -8 -4 -15 -9 -15 -13 0 -22 16 -14 24 11 11
23 6 23 -9z"/>
</g>
</svg>
