<?xml version="1.0" standalone="no"?>
<!DOCTYPE svg PUBLIC "-//W3C//DTD SVG 20010904//EN"
 "http://www.w3.org/TR/2001/REC-SVG-20010904/DTD/svg10.dtd">
<svg version="1.0" xmlns="http://www.w3.org/2000/svg"
 width="60.000000pt" height="60.000000pt" viewBox="0 0 60.000000 60.000000"
 preserveAspectRatio="xMidYMid meet">

<g transform="translate(0.000000,60.000000) scale(0.100000,-0.100000)"
fill="#000000" stroke="none">
<path d="M270 515 c-7 -8 -10 -24 -7 -36 4 -15 -6 -32 -39 -63 -39 -38 -44
-47 -44 -87 0 -24 7 -53 15 -63 8 -11 13 -28 10 -37 -5 -16 5 -18 100 -21 58
-2 105 -2 105 0 0 2 -4 12 -10 22 -7 13 -6 21 5 30 43 35 21 130 -39 171 -25
17 -32 28 -28 46 8 44 -40 71 -68 38z m40 -130 c0 -8 7 -15 15 -15 8 0 15 -4
15 -10 0 -5 -7 -10 -15 -10 -8 0 -15 -7 -15 -15 0 -8 -4 -15 -10 -15 -5 0 -10
7 -10 15 0 8 -8 15 -17 15 -17 1 -17 1 0 14 9 7 17 18 17 25 0 6 5 11 10 11 6
0 10 -7 10 -15z m60 -135 c0 -6 -30 -10 -70 -10 -40 0 -70 4 -70 10 0 6 30 10
70 10 40 0 70 -4 70 -10z
M190 177 c0 -8 12 -20 28 -28 26 -13 24 -14 -45 -19 -51 -3 -78 -10
-90 -23 -16 -15 -16 -19 -3 -28 8 -5 30 -7 47 -4 45 8 294 8 347 0 54 -8 70 9
35 36 -17 13 -41 19 -81 19 -57 0 -77 13 -38 23 11 3 20 12 20 21 0 14 -16 16
-110 16 -85 0 -110 -3 -110 -13z"/>
<path d=""/>
</g>
</svg>
