<?xml version="1.0" standalone="no"?>
<!DOCTYPE svg PUBLIC "-//W3C//DTD SVG 20010904//EN"
 "http://www.w3.org/TR/2001/REC-SVG-20010904/DTD/svg10.dtd">
<svg version="1.0" xmlns="http://www.w3.org/2000/svg"
 width="60.000000pt" height="60.000000pt" viewBox="0 0 60.000000 60.000000"
 preserveAspectRatio="xMidYMid meet">

<g transform="translate(0.000000,60.000000) scale(0.100000,-0.100000)"
fill="#000000" stroke="none">
<path d="M150 465 l0 -35 163 -2 162 -2 -165 -6 c-141 -4 -162 -7 -142 -18 20
-12 22 -20 22 -95 0 -58 -5 -89 -15 -103 -8 -10 -15 -29 -15 -40 0 -13 -8 -24
-21 -27 -15 -4 -20 -12 -17 -29 l3 -23 188 -3 187 -2 0 27 0 28 -162 -1 -163
-1 143 4 c139 3 142 4 142 26 0 12 -7 31 -15 41 -10 14 -15 45 -15 96 0 67 3
79 23 98 18 17 22 30 19 62 -4 37 -6 40 -33 40 -17 0 -32 -6 -35 -15 -4 -8
-15 -15 -25 -15 -11 0 -22 7 -25 15 -4 10 -20 15 -44 15 -24 0 -40 -5 -44 -15
-3 -8 -15 -15 -26 -15 -11 0 -20 7 -20 15 0 10 -11 15 -35 15 -33 0 -35 -2
-35 -35z m280 -75 c0 -6 -45 -10 -115 -10 -70 0 -115 4 -115 10 0 6 45 10 115
10 70 0 115 -4 115 -10z m-57 -177 c-35 -2 -91 -2 -125 0 -35 2 -7 3 62 3 69
0 97 -1 63 -3z m67 -23 c0 -6 -50 -10 -130 -10 -80 0 -130 4 -130 10 0 6 50
10 130 10 80 0 130 -4 130 -10z"/>
</g>
</svg>
