<?xml version="1.0" standalone="no"?>
<!DOCTYPE svg PUBLIC "-//W3C//DTD SVG 20010904//EN"
 "http://www.w3.org/TR/2001/REC-SVG-20010904/DTD/svg10.dtd">
<svg version="1.0" xmlns="http://www.w3.org/2000/svg"
 width="60.000000pt" height="60.000000pt" viewBox="0 0 60.000000 60.000000"
 preserveAspectRatio="xMidYMid meet">

<g transform="translate(0.000000,60.000000) scale(0.100000,-0.100000)"
fill="#000000" stroke="none">
<path d="M266 481 c-10 -11 -16 -30 -15 -43 2 -13 -4 -34 -14 -48 -19 -27 -22
-76 -7 -100 7 -11 2 -23 -19 -45 -31 -33 -61 -102 -61 -140 l0 -25 165 0 166
0 -7 38 c-10 55 -30 99 -59 128 -24 24 -25 29 -15 55 13 30 7 74 -13 98 -7 8
-12 27 -13 42 -1 16 -7 36 -14 44 -18 21 -73 19 -94 -4z"/>
</g>
</svg>
