<?xml version="1.0" standalone="no"?>
<!DOCTYPE svg PUBLIC "-//W3C//DTD SVG 20010904//EN"
 "http://www.w3.org/TR/2001/REC-SVG-20010904/DTD/svg10.dtd">
<svg version="1.0" xmlns="http://www.w3.org/2000/svg"
 width="60.000000pt" height="60.000000pt" viewBox="0 0 60.000000 60.000000"
 preserveAspectRatio="xMidYMid meet">

<g transform="translate(0.000000,60.000000) scale(0.100000,-0.100000)"
fill="#000000" stroke="none">
<path d="M264 476 c-8 -14 -14 -33 -12 -43 1 -10 -5 -29 -15 -43 -19 -28 -22
-57 -7 -96 9 -22 7 -29 -10 -41 -27 -19 -58 -81 -66 -132 l-7 -41 168 0 168 0
-7 41 c-8 51 -39 113 -67 132 -17 12 -19 19 -10 35 16 30 13 74 -6 102 -10 14
-16 33 -15 43 2 10 -4 29 -12 43 -23 34 -79 34 -102 0z m86 -11 c6 -8 9 -23 5
-35 -4 -13 1 -29 14 -46 25 -32 27 -62 5 -93 -16 -22 -15 -24 19 -52 30 -25
67 -97 67 -131 0 -4 -65 -8 -145 -8 -88 0 -145 4 -145 10 0 30 37 99 67 127
33 30 34 33 19 55 -22 31 -20 60 5 92 11 15 18 34 15 42 -16 41 45 74 74 39z"/>
</g>
</svg>
