<?xml version="1.0" standalone="no"?>
<!DOCTYPE svg PUBLIC "-//W3C//DTD SVG 20010904//EN"
 "http://www.w3.org/TR/2001/REC-SVG-20010904/DTD/svg10.dtd">
<svg version="1.0" xmlns="http://www.w3.org/2000/svg"
 width="60.000000pt" height="60.000000pt" viewBox="0 0 60.000000 60.000000"
 preserveAspectRatio="xMidYMid meet">

<g transform="translate(0.000000,60.000000) scale(0.100000,-0.100000)"
fill="#000000" stroke="none">
<path d="M300 520 c0 -5 -7 -10 -15 -10 -8 0 -15 -4 -15 -10 0 -5 7 -10 15
-10 20 0 19 -36 0 -44 -9 -3 -21 -20 -27 -36 -8 -24 -14 -29 -27 -24 -9 4 -35
9 -58 12 -36 3 -46 0 -68 -23 -39 -43 -35 -98 10 -139 31 -29 35 -38 35 -83
l0 -51 51 -17 c58 -20 175 -17 222 5 24 12 27 19 27 61 0 42 4 50 30 69 64 46
75 119 23 160 -28 22 -91 27 -124 10 -16 -9 -19 -7 -19 8 0 10 -9 27 -20 37
-23 21 -27 55 -5 55 8 0 15 5 15 10 0 6 -7 10 -15 10 -8 0 -15 5 -15 10 0 6
-4 10 -10 10 -5 0 -10 -4 -10 -10z m34 -106 c11 -28 6 -51 -13 -75 l-20 -24
-16 38 c-11 28 -13 42 -5 57 13 24 45 26 54 4z m-105 -50 c35 -20 74 -77 69
-101 -2 -13 -16 -20 -53 -24 -28 -4 -58 -10 -67 -14 -12 -5 -27 2 -48 23 -75
76 6 171 99 116z m266 -9 c34 -33 31 -61 -10 -102 -27 -27 -40 -34 -58 -28
-12 3 -41 9 -64 12 -39 5 -43 8 -43 35 0 86 117 142 175 83z m-87 -146 c12 -5
22 -14 22 -20 0 -7 -9 -9 -22 -6 -63 15 -120 18 -173 8 -60 -11 -76 -8 -58 10
24 24 174 29 231 8z m-3 -45 c14 -3 25 -13 25 -21 0 -11 -5 -13 -17 -8 -33 13
-158 17 -197 6 -43 -11 -57 -8 -38 11 25 25 149 32 227 12z m-15 -44 l25 -7
-28 -12 c-36 -14 -138 -14 -174 0 l-28 12 25 7 c14 5 54 8 90 8 36 0 76 -3 90
-8z"/>
</g>
</svg>
