<?xml version="1.0" standalone="no"?>
<!DOCTYPE svg PUBLIC "-//W3C//DTD SVG 20010904//EN"
 "http://www.w3.org/TR/2001/REC-SVG-20010904/DTD/svg10.dtd">
<svg version="1.0" xmlns="http://www.w3.org/2000/svg"
 width="60.000000pt" height="60.000000pt" viewBox="0 0 60.000000 60.000000"
 preserveAspectRatio="xMidYMid meet">

<g transform="translate(0.000000,60.000000) scale(0.100000,-0.100000)"
fill="#000000" stroke="none">
<path d="M280 515 c-7 -8 -10 -24 -7 -36 4 -15 -5 -30 -33 -55 -55 -50 -67
-93 -42 -144 11 -23 16 -44 11 -52 -5 -7 -9 -25 -9 -41 0 -21 7 -30 28 -39 25
-11 21 -13 -45 -18 -51 -3 -78 -10 -90 -23 -16 -15 -16 -19 -3 -28 8 -5 34 -7
57 -4 57 8 262 8 327 0 64 -8 83 7 45 36 -16 12 -45 19 -89 21 -61 3 -63 4
-37 15 20 9 27 20 27 40 0 16 -4 34 -9 42 -6 9 -2 25 10 45 10 17 19 39 19 49
0 33 -31 85 -64 108 -25 17 -32 28 -28 46 8 44 -40 71 -68 38z m50 -25 c0 -13
-7 -20 -20 -20 -19 0 -27 20 -13 33 13 14 33 6 33 -13z m25 -70 c31 -19 65
-72 65 -102 0 -7 -7 -24 -16 -36 -13 -19 -24 -22 -85 -22 -39 0 -79 4 -89 10
-45 24 -26 111 33 149 40 26 52 26 92 1z m35 -195 c11 -13 2 -15 -74 -15 -79
0 -97 5 -79 23 3 4 37 7 73 7 48 0 71 -4 80 -15z m10 -44 c0 -14 -28 -21 -90
-21 -62 0 -90 7 -90 21 0 5 41 9 90 9 50 0 90 -4 90 -9z m10 -68 c41 -3 82
-10 90 -15 10 -6 2 -7 -23 -3 -49 8 -286 8 -334 0 -28 -5 -34 -4 -23 4 8 6 40
11 70 12 30 1 69 5 85 9 17 4 37 6 45 3 8 -3 49 -7 90 -10z"/>
<path d="M300 389 c0 -7 -8 -18 -17 -25 -17 -13 -17 -13 0 -14 9 0 17 -7 17
-15 0 -8 5 -15 10 -15 6 0 10 7 10 15 0 8 7 15 15 15 8 0 15 5 15 10 0 6 -7
10 -15 10 -8 0 -15 7 -15 15 0 8 -4 15 -10 15 -5 0 -10 -5 -10 -11z"/>
</g>
</svg>
